<svg width="22" height="18" fill="none" xmlns="http://www.w3.org/2000/svg"><path fill-rule="evenodd" clip-rule="evenodd" d="M21.206.897a.91.91 0 01.339.935l-3.61 14.755a.983.983 0 01-.67.69 1.1 1.1 0 01-.988-.163l-4.717-3.562-1.979 3.287a1.057 1.057 0 01-1.019.484c-.414-.044-.76-.314-.874-.684l-1.89-6.106-4.54-.838c-.445-.082-.78-.425-.823-.844-.042-.419.217-.813.64-.972L20.152.74a1.1 1.1 0 011.054.157zM5.036 8.45l1.783.33a1 1 0 01.79.671l1.378 4.454 1.37-2.275a1.03 1.03 0 01.707-.473c.3-.053.61.02.847.199l4.38 3.308L19.1 3.189 5.036 8.45z" fill="#725E51"/><path fill-rule="evenodd" clip-rule="evenodd" d="M21.088 2.429c.453-.263.613-.801.369-1.24-.244-.44-.81-.633-1.305-.448L1.074 7.88c-.423.157-.682.552-.64.97.043.42.378.762.825.845l5.156.952c.259.048.528.002.752-.128l13.921-8.091z" fill="#725E51"/><path fill-rule="evenodd" clip-rule="evenodd" d="M21.545 1.833c.105-.431-.124-.872-.554-1.066a1.09 1.09 0 00-1.25.253L10.46 11.491c-.361.407-.296 1.007.145 1.34l5.672 4.283c.276.21.65.271.988.164a.983.983 0 00.67-.69l3.61-14.755z" fill="#725E51"/></svg>