<svg width="18" height="18" viewBox="0 0 18 18" fill="none" xmlns="http://www.w3.org/2000/svg">
<g clip-path="url(#clip0_189_9190)">
<path d="M3.07993 8.95852C2.39736 7.76828 2.06778 6.79641 1.86905 5.81126C1.57513 4.35425 2.24775 2.93097 3.362 2.02281C3.83293 1.63898 4.37277 1.77012 4.65125 2.26972L5.27994 3.3976C5.77826 4.2916 6.02741 4.73859 5.97799 5.21249C5.92858 5.6864 5.59255 6.07237 4.92051 6.84432L3.07993 8.95852ZM3.07993 8.95852C4.46154 11.3676 6.62969 13.5369 9.04152 14.9201M9.04152 14.9201C10.2318 15.6027 11.2036 15.9323 12.1888 16.131C13.6458 16.4249 15.0691 15.7523 15.9772 14.638C16.361 14.1671 16.2299 13.6273 15.7303 13.3488L14.6024 12.7201C13.7084 12.2218 13.2614 11.9727 12.7875 12.022C12.3136 12.0714 11.9276 12.4075 11.1557 13.0795L9.04152 14.9201Z" stroke="#0D1011" stroke-opacity="0.7" stroke-linejoin="round"/>
</g>
<defs>
<clipPath id="clip0_189_9190">
<rect width="18" height="18" fill="white"/>
</clipPath>
</defs>
</svg>
