<svg width="199" height="61" viewBox="0 0 199 61" fill="none" xmlns="http://www.w3.org/2000/svg">
<path d="M29.9999 59.2493C31.2477 59.2493 32.4769 59.1697 33.6829 59.0158L33.6798 58.9987C36.1723 58.5496 38.428 57.4231 40.2669 55.8807L36.2947 50.697C35.881 51.0099 35.3387 51.2493 34.4117 51.4881C32.7476 51.9165 30.6214 52.0939 28.4769 51.8031C26.3035 51.5085 24.0972 50.7345 22.2992 49.2585C21.3201 48.4548 20.4668 47.4476 19.8106 46.2023L19.7331 57.3639C22.9218 58.5821 26.383 59.2493 29.9999 59.2493ZM44.3866 5.53666L24.9082 30.5222C25.8163 30.0795 26.7639 29.7366 27.7117 29.4926C28.6942 29.2396 29.6769 29.092 30.6157 29.0486C30.8391 29.0383 31.0754 29.0354 31.3239 29.0398C31.8135 29.0486 32.3249 29.0889 32.8514 29.1608L58.7604 29.3859C58.4823 21.8689 55.3216 15.0883 50.3511 10.1178C48.5772 8.34393 46.5728 6.8008 44.3866 5.53666ZM19.9024 32.9917L42.1973 4.39323C38.4938 2.65783 34.3601 1.6882 29.9999 1.6882C26.5242 1.6882 23.1923 2.30423 20.1077 3.43328L19.9024 32.9917ZM58.7799 30.6007L37.218 30.4134C38.5741 31.0086 39.915 31.802 41.1459 32.8041C44.2408 35.324 46.6559 39.1532 46.9004 44.4478C46.9187 44.8447 46.9243 45.2574 46.9167 45.686C46.8497 49.403 45.4703 52.7744 43.1976 55.3873C42.7896 55.8563 42.3497 56.29 41.8815 56.6899C45.0541 55.2502 47.9192 53.2516 50.3511 50.8197C55.5303 45.6405 58.7444 38.496 58.7799 30.6007ZM41.1691 55.0582C41.4268 54.8028 41.6743 54.5388 41.9107 54.2671C43.9309 51.9444 45.1571 48.9528 45.2163 45.6594C45.2232 45.2792 45.2176 44.8996 45.2 44.5211C44.9814 39.7871 42.8296 36.3694 40.0722 34.1244C37.3013 31.8684 33.9349 30.7876 31.2973 30.7402C31.0968 30.7367 30.8937 30.7396 30.6891 30.749C29.8613 30.7872 28.9958 30.9171 28.1317 31.1395C26.761 31.4925 25.3942 32.0771 24.187 32.8968L41.1691 55.0582ZM23.2204 33.6355C22.9488 33.869 22.6892 34.1165 22.4443 34.3786C20.953 35.9743 20.0019 38.1165 20.1268 40.8209C20.1629 41.6027 20.2875 42.4311 20.5128 43.3063C21.045 45.3729 22.0807 46.8789 23.3795 47.945C24.9059 49.198 26.8117 49.8596 28.7036 50.1162C30.6244 50.3766 32.5173 50.2208 33.9915 49.8412C34.692 49.6607 35.0277 49.5236 35.2613 49.3485L23.2204 33.6355ZM33.9067 60.2163L33.8983 60.2178L33.8982 60.2174C32.6221 60.3829 31.3211 60.4688 29.9999 60.4688C21.7159 60.4688 14.2158 57.1108 8.78689 51.6819C3.35786 46.2529 0 38.7529 0 30.4688C0 22.1846 3.35786 14.6846 8.78689 9.25562C14.2158 3.82673 21.7157 0.46875 29.9999 0.46875C38.2841 0.46875 45.7842 3.82673 51.2132 9.25562C56.6421 14.6846 60 22.1846 60 30.4688C60 38.7529 56.6421 46.253 51.2132 51.6819C46.652 56.2431 40.6286 59.3421 33.9067 60.2163ZM1.23945 29.3917H16.0406L16.2152 5.19834C13.7943 6.52157 11.5844 8.18235 9.64893 10.1178C4.67714 15.0896 1.51614 21.8725 1.23945 29.3917ZM16.0318 30.6109H1.22035C1.25855 38.5021 4.47188 45.6427 9.64893 50.8197C11.4871 52.6579 13.573 54.2482 15.852 55.5371L16.0318 30.6109Z" fill="white"/>
<path d="M74.3999 25.1727V2.12981H78.4443V13.403L81.1052 11.6305L89.407 2.12981H93.9126L84.2982 13.1549L94.7641 25.1727H90.0101L81.389 15.4592L78.4443 17.3381V25.1727H74.3999ZM124.711 13.6867C124.711 10.7797 123.949 8.46953 122.423 6.75615C120.897 5.04265 118.798 4.1859 116.126 4.1859C113.477 4.1859 111.389 5.04265 109.864 6.75615C108.338 8.46953 107.576 10.7797 107.576 13.6867C107.576 16.6173 108.333 18.9275 109.846 20.6173C111.36 22.3071 113.453 23.152 116.126 23.152C118.822 23.152 120.927 22.3071 122.441 20.6173C123.955 18.9275 124.711 16.6173 124.711 13.6867ZM124.658 4.91268C126.728 7.07513 127.762 9.99988 127.762 13.6867C127.762 17.3735 126.734 20.2923 124.676 22.443C122.618 24.5936 119.768 25.6689 116.126 25.6689C112.507 25.6689 109.669 24.5936 107.611 22.443C105.553 20.2923 104.524 17.3735 104.524 13.6867C104.524 9.99988 105.553 7.07513 107.611 4.91268C109.669 2.75023 112.507 1.66895 116.126 1.66895C119.744 1.66895 122.589 2.75023 124.658 4.91268ZM153.804 2.12981V12.4814H157.742L166.682 2.12981H168.527L159.055 12.9777L169.662 25.1727H167.853L157.884 13.7575H153.804V25.1727H152.314V13.7575H148.305L139.648 25.1727H137.803L147.099 13.2968L138.194 2.12981H140.038L148.269 12.5168H152.314V2.12981H153.804ZM188.004 2.12981H188.643L198.151 25.1727H197.654L194.603 18.0116H181.973L178.993 25.1727H178.496L188.004 2.12981ZM188.323 2.59068L182.15 17.6217H194.461L188.323 2.59068Z" fill="white"/>
<path d="M74.3999 45.9513H75.7589V44.0113L76.3237 43.6937L78.2301 45.9513H79.8186L77.321 42.9442L79.6156 40.2193H78.0977L76.262 42.4238L75.7589 42.7591V40.2193H74.3999V45.9513ZM88.6695 43.0941C88.6695 41.2952 87.5753 40.0693 85.6072 40.0693C83.6391 40.0693 82.5712 41.2952 82.5712 43.0941C82.5712 44.8931 83.6391 46.119 85.6072 46.119C87.5753 46.119 88.6695 44.8931 88.6695 43.0941ZM87.284 43.0941C87.284 44.2053 86.7103 44.9813 85.6072 44.9813C84.5128 44.9813 83.9568 44.2053 83.9568 43.0941C83.9568 41.983 84.5304 41.1981 85.6072 41.1981C86.6838 41.1981 87.284 41.983 87.284 43.0941ZM97.1497 40.9688C97.1497 40.9688 96.5937 40.0693 94.9786 40.0693C92.9842 40.0693 91.9163 41.3215 91.9163 43.1118C91.9163 44.9019 92.9136 46.119 94.9611 46.119C96.8232 46.119 97.4498 44.8579 97.4498 44.8579L96.9115 44.1612C96.9115 44.1612 96.1877 44.9813 95.0229 44.9813C93.9373 44.9813 93.3018 44.2405 93.3018 43.1118C93.3018 41.9653 93.8403 41.1981 95.0669 41.1981C95.5171 41.1981 96.6379 41.8331 96.6379 41.8331L97.1497 40.9688ZM108.189 40.2193H106.415L104.536 44.6726H104.491L102.612 40.2193H100.847V45.9513H102.153V42.027H102.179L103.856 45.9513H105.171L106.848 42.027H106.883V45.9513H108.189V40.2193ZM116.467 44.8754H113.678V43.5791H116.016V42.5474H113.678V41.2952H116.316V40.2193H112.319V45.9513H116.467V44.8754ZM124.055 40.2193H119.528V41.2952H121.108V45.9513H122.476V41.2952H124.055V40.2193ZM133.153 43.0941C133.153 41.2952 132.059 40.0693 130.091 40.0693C128.123 40.0693 127.055 41.2952 127.055 43.0941C127.055 44.8931 128.123 46.119 130.091 46.119C132.059 46.119 133.153 44.8931 133.153 43.0941ZM131.768 43.0941C131.768 44.2053 131.194 44.9813 130.091 44.9813C128.997 44.9813 128.441 44.2053 128.441 43.0941C128.441 41.983 129.014 41.1981 130.091 41.1981C131.168 41.1981 131.768 41.983 131.768 43.0941ZM137.715 40.2193C137.715 43.9142 137.468 44.9019 136.674 44.9019C136.453 44.9019 136.356 44.849 136.356 44.849L136.285 45.9513C136.285 45.9513 136.506 46.1101 136.991 46.1101C138.2 46.1101 138.924 44.7697 138.942 41.2952H140.433V45.9513H141.792V40.2193H137.715ZM151.579 43.0941C151.579 41.2952 150.484 40.0693 148.516 40.0693C146.548 40.0693 145.48 41.2952 145.48 43.0941C145.48 44.8931 146.548 46.119 148.516 46.119C150.484 46.119 151.579 44.8931 151.579 43.0941ZM150.193 43.0941C150.193 44.2053 149.619 44.9813 148.516 44.9813C147.422 44.9813 146.866 44.2053 146.866 43.0941C146.866 41.983 147.44 41.1981 148.516 41.1981C149.593 41.1981 150.193 41.983 150.193 43.0941ZM158.956 41.2952V40.2193H155.267V45.9513H156.626V41.2952H158.956ZM167.471 40.2193H166.227L166.156 40.378L163.535 43.9759H163.509L163.553 43.4646V40.2193H162.264V45.9513H163.518L163.588 45.7926L166.2 42.1947H166.218L166.183 42.7591V45.9513H167.471V40.2193ZM176.807 40.2193H175.563L175.492 40.378L172.871 43.9759H172.845L172.889 43.4646V40.2193H171.601V45.9513H172.854L172.924 45.7926L175.537 42.1947H175.554L175.519 42.7591V45.9513H176.807V40.2193Z" fill="white"/>
<path d="M74.3999 59.111H75.7589V57.1709L76.3237 56.8534L78.2301 59.111H79.8186L77.321 56.1038L79.6156 53.3789H78.0977L76.262 55.5835L75.7589 55.9187V53.3789H74.3999V59.111ZM84.0626 53.3789C84.0626 57.0739 83.8156 58.0616 83.0212 58.0616C82.8006 58.0616 82.7036 58.0087 82.7036 58.0087L82.633 59.111C82.633 59.111 82.8536 59.2698 83.339 59.2698C84.548 59.2698 85.2717 57.9293 85.2894 54.4548H86.7809V59.111H88.1399V53.3789H84.0626ZM97.4762 53.3789H96.2318L96.1612 53.5377L93.5402 57.1356H93.5136L93.5577 56.6242V53.3789H92.2693V59.111H93.5225L93.5931 58.9522L96.2054 55.3543H96.223L96.1877 55.9187V59.111H97.4762V53.3789ZM106.742 53.3789H105.383V55.7246H102.965V53.3789H101.606V59.111H102.965V56.7565H105.383V59.111H106.742V53.3789ZM116.078 53.3789H114.834L114.763 53.5377L112.142 57.1356H112.115L112.16 56.6242V53.3789H110.871V59.111H112.124L112.195 58.9522L114.807 55.3543H114.825L114.79 55.9187V59.111H116.078V53.3789ZM120.207 59.111H121.566V57.1709L122.131 56.8534L124.037 59.111H125.626L123.128 56.1038L125.423 53.3789H123.905L122.069 55.5835L121.566 55.9187V53.3789H120.207V59.111ZM130.47 53.3789L128.379 59.111H129.747L130.161 57.9382H132.553L132.994 59.111H134.38L132.288 53.3789H130.47ZM131.37 54.3401L132.244 57.0387H130.47L131.362 54.3401H131.37Z" fill="white"/>
</svg>
