<svg width="166" height="50" viewBox="0 0 166 50" fill="none" xmlns="http://www.w3.org/2000/svg">
<path d="M24.9999 48.9838C26.0397 48.9838 27.0641 48.9175 28.0691 48.7892L28.0665 48.775C30.1436 48.4007 32.0233 47.462 33.5558 46.1767L30.2456 41.8568C29.9008 42.1177 29.4489 42.3172 28.6764 42.5161C27.2897 42.8732 25.5179 43.021 23.7308 42.7786C21.9196 42.5331 20.081 41.8882 18.5827 40.6581C17.7668 39.9884 17.0556 39.149 16.5088 38.1113L16.4442 47.4126C19.1015 48.4278 21.9858 48.9838 24.9999 48.9838ZM36.9888 4.22326L20.7568 25.0446C21.5136 24.6756 22.3033 24.3899 23.0931 24.1866C23.9118 23.9757 24.7307 23.8527 25.5131 23.8166C25.6992 23.808 25.8961 23.8055 26.1033 23.8092C26.5113 23.8166 26.9374 23.8501 27.3762 23.91L48.967 24.0976C48.7353 17.8335 46.1013 12.1829 41.9592 8.04086C40.481 6.56265 38.8106 5.27671 36.9888 4.22326ZM16.5854 27.1024L35.1644 3.2704C32.0782 1.82423 28.6335 1.01621 24.9999 1.01621C22.1035 1.01621 19.3269 1.52957 16.7564 2.47044L16.5854 27.1024ZM48.9833 25.1099L31.015 24.9538C32.145 25.4499 33.2625 26.1111 34.2882 26.9462C36.8673 29.0461 38.8799 32.2371 39.0837 36.6492C39.0989 36.98 39.1036 37.3239 39.0972 37.681C39.0414 40.7786 37.8919 43.588 35.998 45.7655C35.658 46.1563 35.2914 46.5177 34.9012 46.851C37.5451 45.6512 39.9326 43.9857 41.9592 41.9591C46.2752 37.6431 48.9537 31.6893 48.9833 25.1099ZM34.3076 45.4912C34.5223 45.2783 34.7286 45.0584 34.9255 44.8319C36.6091 42.8964 37.6309 40.4034 37.6803 37.6588C37.686 37.342 37.6813 37.0257 37.6667 36.7103C37.4845 32.7653 35.6913 29.9172 33.3935 28.0464C31.0844 26.1664 28.2791 25.2657 26.0811 25.2262C25.914 25.2233 25.7447 25.2257 25.5742 25.2335C24.8844 25.2654 24.1632 25.3736 23.4431 25.559C22.3008 25.8531 21.1619 26.3403 20.1558 27.0234L34.3076 45.4912ZM19.3504 27.6389C19.124 27.8335 18.9077 28.0398 18.7036 28.2582C17.4609 29.588 16.6682 31.3731 16.7723 33.6268C16.8025 34.2783 16.9062 34.9687 17.094 35.6979C17.5375 37.4201 18.4006 38.6752 19.4829 39.5635C20.7549 40.6077 22.3431 41.1591 23.9196 41.3729C25.5203 41.5899 27.0977 41.46 28.3263 41.1437C28.91 40.9933 29.1898 40.8791 29.3844 40.7332L19.3504 27.6389ZM28.2556 49.7896L28.2486 49.7909L28.2485 49.7905C27.1851 49.9285 26.1009 50 24.9999 50C18.0966 50 11.8465 47.2017 7.32241 42.6776C2.79822 38.1534 0 31.9035 0 25C0 18.0965 2.79822 11.8466 7.32241 7.32239C11.8465 2.79832 18.0965 0 24.9999 0C31.9034 0 38.1535 2.79832 42.6777 7.32239C47.2018 11.8466 50 18.0965 50 25C50 31.9035 47.2018 38.1535 42.6777 42.6776C38.8766 46.4787 33.8571 49.0611 28.2556 49.7896ZM1.03287 24.1024H13.3672L13.5126 3.94133C11.4953 5.04401 9.65364 6.428 8.04077 8.04086C3.89762 12.184 1.26345 17.8365 1.03287 24.1024ZM13.3598 25.1184H1.01696C1.04879 31.6944 3.72657 37.6449 8.04077 41.9591C9.57257 43.4909 11.3109 44.8162 13.21 45.8903L13.3598 25.1184Z" fill="#0D1011"/>
<path d="M62 22.5864V3.38406H65.3704V12.7784L67.5878 11.3013L74.5059 3.38406H78.2606L70.2486 12.5716L78.9701 22.5864H75.0085L67.8242 14.4919L65.3704 16.0577V22.5864H62ZM103.926 13.0148C103.926 10.5923 103.291 8.66716 102.019 7.23933C100.748 5.81142 98.9987 5.09746 96.7716 5.09746C94.564 5.09746 92.8246 5.81142 91.5533 7.23933C90.282 8.66716 89.6464 10.5923 89.6464 13.0148C89.6464 15.457 90.2772 17.3821 91.5385 18.7903C92.8 20.1984 94.5443 20.9025 96.7716 20.9025C99.0184 20.9025 100.773 20.1984 102.034 18.7903C103.295 17.3821 103.926 15.457 103.926 13.0148ZM103.882 5.70311C105.606 7.50515 106.469 9.94244 106.469 13.0148C106.469 16.0872 105.611 18.5195 103.897 20.3117C102.182 22.1039 99.8068 23 96.7716 23C93.7559 23 91.3907 22.1039 89.676 20.3117C87.9612 18.5195 87.1038 16.0872 87.1038 13.0148C87.1038 9.94244 87.9612 7.50515 89.676 5.70311C91.3907 3.90107 93.7559 3 96.7716 3C99.7871 3 102.157 3.90107 103.882 5.70311ZM128.17 3.38406V12.0104H131.452L138.902 3.38406H140.439L132.546 12.424L141.385 22.5864H139.878L131.57 13.0738H128.17V22.5864H126.928V13.0738H123.587L116.374 22.5864H114.836L122.582 12.6899L115.162 3.38406H116.699L123.558 12.0399H126.928V3.38406H128.17ZM156.67 3.38406H157.202L165.126 22.5864H164.712L162.169 16.6189H151.644L149.161 22.5864H148.747L156.67 3.38406ZM156.936 3.76811L151.792 16.294H162.051L156.936 3.76811Z" fill="#0D1011"/>
<path d="M62 35.9017H63.1325V34.285L63.6032 34.0203L65.1918 35.9017H66.5156L64.4343 33.3957L66.3464 31.1249H65.0815L63.5517 32.9621L63.1325 33.2414V31.1249H62V35.9017ZM73.8914 33.5207C73.8914 32.0215 72.9795 31 71.3394 31C69.6994 31 68.8094 32.0215 68.8094 33.5207C68.8094 35.0198 69.6994 36.0413 71.3394 36.0413C72.9795 36.0413 73.8914 35.0198 73.8914 33.5207ZM72.7367 33.5207C72.7367 34.4466 72.2587 35.0933 71.3394 35.0933C70.4274 35.0933 69.9641 34.4466 69.9641 33.5207C69.9641 32.5947 70.4421 31.9407 71.3394 31.9407C72.2366 31.9407 72.7367 32.5947 72.7367 33.5207ZM80.9581 31.7496C80.9581 31.7496 80.4948 31 79.1489 31C77.4869 31 76.597 32.0435 76.597 33.5354C76.597 35.0272 77.4281 36.0413 79.1343 36.0413C80.6861 36.0413 81.2082 34.9905 81.2082 34.9905L80.7596 34.4099C80.7596 34.4099 80.1565 35.0933 79.1858 35.0933C78.2811 35.0933 77.7516 34.4759 77.7516 33.5354C77.7516 32.58 78.2003 31.9407 79.2225 31.9407C79.5976 31.9407 80.5317 32.4698 80.5317 32.4698L80.9581 31.7496ZM90.1578 31.1249H88.6795L87.113 34.836H87.0763L85.5098 31.1249H84.0389V35.9017H85.1273V32.6314H85.1494L86.5467 35.9017H87.6425L89.0399 32.6314H89.0693V35.9017H90.1578V31.1249ZM97.0555 35.0051H94.7314V33.9248H96.6804V33.0651H94.7314V32.0215H96.9305V31.1249H93.5989V35.9017H97.0555V35.0051ZM103.38 31.1249H99.6067V32.0215H100.923V35.9017H102.063V32.0215H103.38V31.1249ZM110.961 33.5207C110.961 32.0215 110.049 31 108.409 31C106.769 31 105.879 32.0215 105.879 33.5207C105.879 35.0198 106.769 36.0413 108.409 36.0413C110.049 36.0413 110.961 35.0198 110.961 33.5207ZM109.807 33.5207C109.807 34.4466 109.329 35.0933 108.409 35.0933C107.497 35.0933 107.034 34.4466 107.034 33.5207C107.034 32.5947 107.512 31.9407 108.409 31.9407C109.306 31.9407 109.807 32.5947 109.807 33.5207ZM114.763 31.1249C114.763 34.2041 114.557 35.0272 113.895 35.0272C113.711 35.0272 113.63 34.9831 113.63 34.9831L113.571 35.9017C113.571 35.9017 113.755 36.034 114.16 36.034C115.167 36.034 115.77 34.9169 115.785 32.0215H117.028V35.9017H118.16V31.1249H114.763ZM126.316 33.5207C126.316 32.0215 125.404 31 123.764 31C122.124 31 121.234 32.0215 121.234 33.5207C121.234 35.0198 122.124 36.0413 123.764 36.0413C125.404 36.0413 126.316 35.0198 126.316 33.5207ZM125.161 33.5207C125.161 34.4466 124.683 35.0933 123.764 35.0933C122.852 35.0933 122.388 34.4466 122.388 33.5207C122.388 32.5947 122.866 31.9407 123.764 31.9407C124.661 31.9407 125.161 32.5947 125.161 33.5207ZM132.463 32.0215V31.1249H129.389V35.9017H130.522V32.0215H132.463ZM139.559 31.1249H138.522L138.464 31.2573L136.279 34.2555H136.257L136.294 33.8294V31.1249H135.22V35.9017H136.265L136.324 35.7694L138.5 32.7711H138.515L138.486 33.2414V35.9017H139.559V31.1249ZM147.34 31.1249H146.303L146.244 31.2573L144.06 34.2555H144.037L144.074 33.8294V31.1249H143.001V35.9017H144.045L144.104 35.7694L146.281 32.7711H146.295L146.266 33.2414V35.9017H147.34V31.1249Z" fill="#0D1011"/>
<path d="M62 46.8677H63.1325V45.2509L63.6032 44.9863L65.1918 46.8677H66.5156L64.4343 44.3617L66.3464 42.0909H65.0815L63.5517 43.9281L63.1325 44.2074V42.0909H62V46.8677ZM70.0522 42.0909C70.0522 45.1701 69.8464 45.9931 69.1844 45.9931C69.0006 45.9931 68.9197 45.9491 68.9197 45.9491L68.8609 46.8677C68.8609 46.8677 69.0448 47 69.4493 47C70.4567 47 71.0598 45.8829 71.0746 42.9875H72.3175V46.8677H73.45V42.0909H70.0522ZM81.2302 42.0909H80.1933L80.1344 42.2232L77.9502 45.2215H77.9281L77.9648 44.7953V42.0909H76.8912V46.8677H77.9355L77.9943 46.7353L80.1713 43.7371H80.1859L80.1565 44.2074V46.8677H81.2302V42.0909ZM88.9516 42.0909H87.819V44.0457H85.8039V42.0909H84.6713V46.8677H85.8039V44.9056H87.819V46.8677H88.9516V42.0909ZM96.7317 42.0909H95.6948L95.6359 42.2232L93.4517 45.2215H93.4296L93.4664 44.7953V42.0909H92.3927V46.8677H93.437L93.4958 46.7353L95.6728 43.7371H95.6874L95.6581 44.2074V46.8677H96.7317V42.0909ZM100.173 46.8677H101.305V45.2509L101.776 44.9863L103.365 46.8677H104.688L102.607 44.3617L104.519 42.0909H103.254L101.725 43.9281L101.305 44.2074V42.0909H100.173V46.8677ZM108.725 42.0909L106.982 46.8677H108.122L108.468 45.8903H110.461L110.829 46.8677H111.983L110.24 42.0909H108.725ZM109.475 42.8919L110.203 45.1407H108.725L109.468 42.8919H109.475Z" fill="#0D1011"/>
</svg>
