<svg width="22" height="18" viewBox="0 0 22 18" fill="none" xmlns="http://www.w3.org/2000/svg">
<path fill-rule="evenodd" clip-rule="evenodd" d="M21.2065 0.896603C21.4991 1.12599 21.6296 1.48633 21.545 1.83204L17.9357 16.5868C17.8568 16.9086 17.6033 17.1698 17.2653 17.2772C16.9275 17.3846 16.5533 17.3228 16.2767 17.1138L11.56 13.5516L9.58123 16.8394C9.37873 17.176 8.97643 17.3668 8.56198 17.3228C8.14764 17.279 7.80271 17.0089 7.68819 16.6386L5.79841 10.5334L1.2587 9.69523C0.812077 9.61265 0.476961 9.26964 0.434256 8.85092C0.391563 8.43242 0.651427 8.03754 1.07353 7.87948L20.1516 0.740116C20.5075 0.607028 20.9138 0.667328 21.2065 0.896603ZM5.03611 8.45109L6.81946 8.78027C7.19814 8.85013 7.50268 9.10944 7.60876 9.45223L8.98734 13.9059L10.3564 11.6311C10.5049 11.3846 10.7639 11.2115 11.0642 11.1585C11.3642 11.1055 11.6743 11.1781 11.9109 11.3567L16.2914 14.665L19.0987 3.18857L5.03611 8.45109Z" fill="#725E51"/>
<path fill-rule="evenodd" clip-rule="evenodd" d="M21.0885 2.42853C21.5408 2.16573 21.7005 1.62775 21.4568 1.18889C21.2132 0.749913 20.6467 0.555514 20.1516 0.740801L1.07353 7.88028C0.651427 8.03811 0.391563 8.43299 0.434256 8.8516C0.476961 9.27021 0.812077 9.61345 1.2587 9.6958L6.41503 10.6478C6.674 10.6956 6.9431 10.6498 7.16664 10.5199L21.0885 2.42853Z" fill="#725E51"/>
<path fill-rule="evenodd" clip-rule="evenodd" d="M21.5451 1.83251C21.6504 1.40186 21.4211 0.960857 20.9914 0.767357C20.5615 0.573744 20.0439 0.678369 19.741 1.02003L10.4598 11.4912C10.099 11.8981 10.164 12.4978 10.6049 12.8307L16.2767 17.1144C16.5533 17.3233 16.9275 17.3852 17.2654 17.2777C17.6033 17.1704 17.8569 16.9091 17.9357 16.5873L21.5451 1.83251Z" fill="#725E51"/>
</svg>
