<svg width="454" height="371" viewBox="0 0 454 371" fill="none" xmlns="http://www.w3.org/2000/svg">
<path d="M226.999 414.587C236.441 414.587 245.742 413.985 254.867 412.82L254.844 412.691C273.704 409.293 290.772 400.769 304.686 389.098L274.63 349.874C271.5 352.243 267.396 354.054 260.382 355.86C247.79 359.103 231.702 360.445 215.475 358.244C199.03 356.015 182.336 350.159 168.73 338.99C161.322 332.909 154.865 325.288 149.9 315.865L149.314 400.321C173.442 409.538 199.631 414.587 226.999 414.587ZM335.859 8.16139L188.472 197.219C195.344 193.869 202.514 191.274 209.685 189.428C217.119 187.514 224.555 186.397 231.659 186.069C233.349 185.991 235.137 185.968 237.018 186.002C240.722 186.069 244.592 186.373 248.576 186.917L444.621 188.621C442.516 131.742 418.6 80.4353 380.99 42.8252C367.568 29.4031 352.401 17.7268 335.859 8.16139ZM150.595 215.904L319.293 -0.490595C291.27 -13.6218 259.992 -20.9586 226.999 -20.9586C200.7 -20.9586 175.488 -16.2973 152.148 -7.75422L150.595 215.904ZM444.768 197.812L281.616 196.395C291.877 200.899 302.023 206.903 311.337 214.485C334.756 233.552 353.03 262.527 354.88 302.589C355.018 305.592 355.061 308.715 355.003 311.958C354.496 340.084 344.059 365.593 326.862 385.365C323.775 388.913 320.446 392.195 316.903 395.221C340.909 384.327 362.588 369.205 380.99 350.803C420.179 311.614 444.499 257.553 444.768 197.812ZM311.513 382.874C313.463 380.942 315.336 378.944 317.124 376.888C332.41 359.314 341.689 336.677 342.137 311.757C342.189 308.88 342.146 306.007 342.013 303.144C340.359 267.323 324.077 241.462 303.213 224.475C282.246 207.405 256.774 199.227 236.816 198.868C235.299 198.841 233.762 198.864 232.214 198.935C225.95 199.224 219.402 200.207 212.863 201.89C202.492 204.561 192.15 208.984 183.015 215.187L311.513 382.874ZM175.701 220.776C173.646 222.543 171.682 224.416 169.829 226.399C158.545 238.473 151.347 254.682 152.293 275.146C152.566 281.061 153.509 287.33 155.214 293.952C159.24 309.589 167.077 320.985 176.905 329.051C188.455 338.532 202.875 343.539 217.19 345.48C231.724 347.45 246.047 346.271 257.203 343.399C262.503 342.034 265.043 340.996 266.81 339.671L175.701 220.776ZM256.561 421.904L256.497 421.915L256.496 421.912C246.84 423.165 236.997 423.814 226.999 423.814C164.317 423.814 107.566 398.405 66.4875 357.327C25.4078 316.247 0 259.498 0 196.814C0 134.131 25.4078 77.3811 66.4875 36.3015C107.566 -4.77708 164.316 -30.1858 226.999 -30.1858C289.683 -30.1858 346.434 -4.77708 387.513 36.3015C428.592 77.3811 454 134.131 454 196.814C454 259.498 428.592 316.248 387.513 357.327C353 391.84 307.423 415.289 256.561 421.904ZM9.37847 188.664H121.374L122.695 5.60144C104.377 15.6139 87.655 28.1804 73.0102 42.8252C35.3904 80.445 11.4721 131.769 9.37847 188.664ZM121.307 197.889H9.23395C9.52299 257.6 33.8372 311.63 73.0102 350.803C86.9189 364.712 102.703 376.746 119.947 386.498L121.307 197.889Z" fill="url(#paint0_linear_248_7023)"/>
<defs>
<linearGradient id="paint0_linear_248_7023" x1="76.4214" y1="9.44015" x2="404.185" y2="349.091" gradientUnits="userSpaceOnUse">
<stop offset="0.225962" stop-color="#8A7A4D"/>
<stop offset="0.5" stop-color="#F6EBBA"/>
<stop offset="0.605769" stop-color="#BBAE87"/>
</linearGradient>
</defs>
</svg>
