<svg width="24" height="24" viewBox="0 0 24 24" fill="none" xmlns="http://www.w3.org/2000/svg">
<mask id="mask0_189_8133" style="mask-type:luminance" maskUnits="userSpaceOnUse" x="0" y="0" width="24" height="24">
<path d="M23.5383 0.46154H0.461426V23.5385H23.5383V0.46154Z" fill="white"/>
</mask>
<g mask="url(#mask0_189_8133)">
<path d="M12 1.38495C6.13848 1.38495 1.38452 6.1387 1.38452 12.0002C1.38452 14.2156 2.05387 16.3156 3.3231 18.1156L1.43068 22.2695C1.38452 22.3618 1.4076 22.4541 1.47683 22.5233C1.54606 22.5925 1.63848 22.6156 1.73079 22.5925L6.27694 20.931C7.98464 22.0387 9.96925 22.6156 12 22.6156H12.0231C17.8846 22.6156 22.6385 17.8618 22.6385 12.0002C22.6385 6.1387 17.8616 1.38495 12 1.38495ZM17.9077 16.0848C17.8385 16.2695 17.6769 16.4772 17.5846 16.6387C17.3769 16.9156 17.1231 17.1925 16.8923 17.3772C16.8462 17.4233 16.8 17.4464 16.7539 17.4925C16.7077 17.5156 16.6846 17.5387 16.6385 17.5618C16.4539 17.7002 16.2693 17.7925 16.1077 17.8387C15.9923 17.8848 15.8539 17.9079 15.7154 17.9079C15.6693 17.9079 15.6231 17.9079 15.6 17.9079C15.3693 17.9079 15.2308 17.8618 14.9077 17.7464C14.6539 17.631 14.3769 17.5156 14.0769 17.4002L14.0077 17.3541C13.7539 17.2387 13.5 17.1002 13.2462 16.9848L13.1539 16.9156C12.9 16.7772 12.6693 16.6387 12.4385 16.5002L12.3923 16.4541C10.8 15.4618 9.46156 14.2618 8.30771 12.7618C8.19233 12.6233 8.10002 12.4848 7.98464 12.3464C7.93848 12.2772 7.89233 12.2079 7.84617 12.1387L7.70771 11.931C7.61541 11.7925 7.54617 11.6772 7.45387 11.5387L7.43079 11.5156C7.36156 11.3772 7.26925 11.2618 7.20002 11.1233C7.20002 11.1233 7.17694 11.1002 7.17694 11.0772C6.80771 10.431 6.48464 9.76177 6.25387 9.11562C6.00002 8.42331 5.93079 7.98485 6.20771 7.50023C6.3231 7.29254 6.76156 6.87716 7.06156 6.66946C7.59233 6.27716 7.8231 6.1387 8.05387 6.09254C8.2154 6.06946 8.46925 6.06946 8.65387 6.1387C8.74617 6.16177 8.86156 6.231 8.93079 6.27716C9.36925 6.55408 10.3846 7.86946 10.7077 8.49254C10.9385 8.90793 10.9846 9.231 10.9154 9.48485C10.8462 9.76177 10.6846 9.92331 10.2231 10.2695C10.1308 10.3618 10.0154 10.431 9.94618 10.5002C9.9231 10.5233 9.9231 10.5233 9.90002 10.5464L9.87695 10.5695C9.83079 10.6156 9.80771 10.7541 9.80771 10.8464C9.80771 11.0772 9.96925 11.6079 10.2462 12.0233C10.4539 12.3464 10.8 12.7618 11.1693 13.0848C11.5846 13.4541 11.9539 13.7079 12.3693 13.9156C12.8539 14.1464 13.1539 14.2156 13.3154 14.1464C13.3385 14.1233 13.3846 14.1233 13.4077 14.1002C13.4539 14.0541 13.5462 13.9387 13.7077 13.7541C13.9385 13.4541 14.0539 13.3387 14.2385 13.2464C14.2846 13.2233 14.3539 13.2002 14.4 13.1772C14.7231 13.0618 15.0693 13.0848 15.3923 13.2695C15.6231 13.3848 16.0846 13.6618 16.3846 13.8695C16.7539 14.1233 17.6308 14.8156 17.7693 14.9772C17.9077 15.1387 18 15.3464 18 15.5772C18.0231 15.7156 17.9769 15.9002 17.9077 16.0848Z" fill="#725E51"/>
</g>
</svg>
