<svg width="454" height="455" viewBox="0 0 454 455" fill="none" xmlns="http://www.w3.org/2000/svg">
<path d="M226.999 445.587C236.441 445.587 245.742 444.985 254.867 443.82L254.844 443.691C273.704 440.293 290.772 431.769 304.686 420.098L274.63 380.874C271.5 383.243 267.396 385.054 260.382 386.86C247.79 390.103 231.702 391.445 215.475 389.244C199.03 387.015 182.336 381.159 168.73 369.99C161.322 363.909 154.865 356.288 149.9 346.865L149.314 431.321C173.442 440.538 199.631 445.587 226.999 445.587ZM335.859 39.1614L188.472 228.219C195.344 224.869 202.514 222.274 209.685 220.428C217.119 218.514 224.555 217.397 231.659 217.069C233.349 216.991 235.137 216.968 237.018 217.002C240.722 217.069 244.592 217.373 248.576 217.917L444.621 219.621C442.516 162.742 418.6 111.435 380.99 73.8252C367.568 60.4031 352.401 48.7268 335.859 39.1614ZM150.595 246.904L319.293 30.5094C291.27 17.3782 259.992 10.0414 226.999 10.0414C200.7 10.0414 175.488 14.7027 152.148 23.2458L150.595 246.904ZM444.768 228.812L281.616 227.395C291.877 231.899 302.023 237.903 311.337 245.485C334.756 264.552 353.03 293.527 354.88 333.589C355.018 336.592 355.061 339.715 355.003 342.958C354.496 371.084 344.059 396.593 326.862 416.365C323.775 419.913 320.446 423.195 316.903 426.221C340.909 415.327 362.588 400.205 380.99 381.803C420.179 342.614 444.499 288.553 444.768 228.812ZM311.513 413.874C313.463 411.942 315.336 409.944 317.124 407.888C332.41 390.314 341.689 367.677 342.137 342.757C342.189 339.88 342.146 337.007 342.013 334.144C340.359 298.323 324.077 272.462 303.213 255.475C282.246 238.405 256.774 230.227 236.816 229.868C235.299 229.841 233.762 229.864 232.214 229.935C225.95 230.224 219.402 231.207 212.863 232.89C202.492 235.561 192.15 239.984 183.015 246.187L311.513 413.874ZM175.701 251.776C173.646 253.543 171.682 255.416 169.829 257.399C158.545 269.473 151.347 285.682 152.293 306.146C152.566 312.061 153.509 318.33 155.214 324.952C159.24 340.589 167.077 351.985 176.905 360.051C188.455 369.532 202.875 374.539 217.19 376.48C231.724 378.45 246.047 377.271 257.203 374.399C262.503 373.034 265.043 371.996 266.81 370.671L175.701 251.776ZM256.561 452.904L256.497 452.915L256.496 452.912C246.84 454.165 236.997 454.814 226.999 454.814C164.317 454.814 107.566 429.405 66.4875 388.327C25.4078 347.247 0 290.498 0 227.814C0 165.131 25.4078 108.381 66.4875 67.3015C107.566 26.2229 164.316 0.814209 226.999 0.814209C289.683 0.814209 346.434 26.2229 387.513 67.3015C428.592 108.381 454 165.131 454 227.814C454 290.498 428.592 347.248 387.513 388.327C353 422.84 307.423 446.289 256.561 452.904ZM9.37847 219.664H121.374L122.695 36.6014C104.377 46.6139 87.655 59.1804 73.0102 73.8252C35.3904 111.445 11.4721 162.769 9.37847 219.664ZM121.307 228.889H9.23395C9.52299 288.6 33.8372 342.63 73.0102 381.803C86.9189 395.712 102.703 407.746 119.947 417.498L121.307 228.889Z" fill="url(#paint0_linear_2010_4298)"/>
<defs>
<linearGradient id="paint0_linear_2010_4298" x1="76.4214" y1="40.4401" x2="404.185" y2="380.091" gradientUnits="userSpaceOnUse">
<stop offset="0.225962" stop-color="#8A7A4D"/>
<stop offset="0.5" stop-color="#F6EBBA"/>
<stop offset="0.605769" stop-color="#BBAE87"/>
</linearGradient>
</defs>
</svg>
