<svg width="166" height="50" fill="none" xmlns="http://www.w3.org/2000/svg"><path d="M25 48.984c1.04 0 2.064-.067 3.07-.195l-.003-.014c2.077-.374 3.956-1.313 5.489-2.598l-3.31-4.32c-.345.26-.797.46-1.57.66-1.386.356-3.158.504-4.945.262-1.811-.246-3.65-.89-5.148-2.12a8.23 8.23 0 01-2.074-2.548l-.065 9.302A23.924 23.924 0 0025 48.983zm11.989-44.76l-16.232 20.82a12.4 12.4 0 014.756-1.227 9.24 9.24 0 01.59-.008c.408.008.834.041 1.273.101l21.591.188A23.906 23.906 0 0041.959 8.04a24.075 24.075 0 00-4.97-3.818zM16.585 27.101L35.165 3.27A23.891 23.891 0 0025 1.016c-2.896 0-5.673.514-8.244 1.454l-.17 24.632zm32.398-1.992l-17.968-.156a14.297 14.297 0 013.273 1.992c2.58 2.1 4.592 5.291 4.796 9.703.015.331.02.675.013 1.032a12.595 12.595 0 01-3.099 8.085c-.34.39-.707.752-1.097 1.085a24.032 24.032 0 007.058-4.892 23.909 23.909 0 007.024-16.85zM34.308 45.49c.214-.213.42-.433.617-.66a11.177 11.177 0 002.755-7.172c.006-.317.001-.633-.013-.949-.183-3.945-1.976-6.793-4.273-8.664-2.31-1.88-5.115-2.78-7.313-2.82-.167-.003-.336 0-.507.008a10.5 10.5 0 00-2.13.325 10.586 10.586 0 00-3.288 1.464L34.308 45.49zM19.35 27.64c-.226.195-.442.4-.646.62-1.243 1.329-2.036 3.114-1.932 5.368.03.651.134 1.342.322 2.07.444 1.723 1.307 2.978 2.389 3.866 1.272 1.045 2.86 1.596 4.437 1.81 1.6.217 3.178.087 4.406-.23.584-.15.864-.264 1.058-.41L19.35 27.64zm8.906 22.15l-.007.002a25.25 25.25 0 01-3.25.209 24.922 24.922 0 01-17.677-7.322A24.922 24.922 0 010 25 24.922 24.922 0 017.322 7.322 24.922 24.922 0 0125 0a24.923 24.923 0 0117.678 7.322A24.922 24.922 0 0150 25a24.922 24.922 0 01-7.322 17.678 24.928 24.928 0 01-14.422 7.112zM1.033 24.103h12.334l.146-20.16A24.066 24.066 0 008.04 8.04a23.906 23.906 0 00-7.008 16.061zm12.327 1.016H1.017A23.908 23.908 0 008.041 41.96a24.074 24.074 0 005.169 3.931l.15-20.772zM62 22.586V3.384h3.37v9.394l2.218-1.477 6.918-7.917h3.755l-8.012 9.188 8.721 10.014h-3.962l-7.184-8.094-2.454 1.566v6.528H62zm41.926-9.571c0-2.423-.635-4.348-1.907-5.776-1.271-1.428-3.02-2.142-5.247-2.142-2.208 0-3.947.714-5.219 2.142-1.271 1.428-1.907 3.353-1.907 5.776 0 2.442.631 4.367 1.892 5.775 1.262 1.408 3.006 2.113 5.234 2.113 2.246 0 4.001-.705 5.262-2.113 1.261-1.408 1.892-3.333 1.892-5.775zm-.044-7.312c1.724 1.802 2.587 4.24 2.587 7.312s-.858 5.505-2.572 7.297C102.182 22.104 99.807 23 96.772 23c-3.016 0-5.381-.896-7.096-2.688-1.715-1.793-2.572-4.225-2.572-7.297 0-3.073.857-5.51 2.572-7.312C91.391 3.901 93.756 3 96.772 3c3.015 0 5.385.901 7.11 2.703zm24.288-2.319v8.626h3.282l7.45-8.626h1.537l-7.893 9.04 8.839 10.162h-1.507l-8.308-9.512h-3.4v9.512h-1.242v-9.512h-3.341l-7.213 9.512h-1.538l7.746-9.896-7.42-9.306h1.537l6.859 8.656h3.37V3.384h1.242zm28.5 0h.532l7.924 19.202h-.414l-2.543-5.967h-10.525l-2.483 5.967h-.414l7.923-19.202zm.266.384l-5.144 12.526h10.259l-5.115-12.526zM62 35.902h1.133v-1.617l.47-.265 1.589 1.882h1.324l-2.082-2.506 1.912-2.271h-1.264l-1.53 1.837-.42.28v-2.117H62v4.777zm11.891-2.381c0-1.5-.912-2.521-2.552-2.521-1.64 0-2.53 1.022-2.53 2.52 0 1.5.89 2.521 2.53 2.521 1.64 0 2.552-1.021 2.552-2.52zm-1.154 0c0 .926-.478 1.572-1.398 1.572-.912 0-1.375-.646-1.375-1.572s.478-1.58 1.375-1.58c.898 0 1.398.654 1.398 1.58zm8.221-1.771s-.463-.75-1.81-.75c-1.661 0-2.551 1.044-2.551 2.535 0 1.492.831 2.506 2.537 2.506 1.552 0 2.074-1.05 2.074-1.05l-.448-.581s-.604.683-1.574.683c-.905 0-1.434-.617-1.434-1.558 0-.955.448-1.594 1.47-1.594.376 0 1.31.529 1.31.529l.426-.72zm9.2-.625H88.68l-1.567 3.711h-.037l-1.566-3.711h-1.471v4.777h1.088v-3.27h.022l1.398 3.27h1.096l1.397-3.27h.03v3.27h1.088v-4.777zm6.897 3.88h-2.324v-1.08h1.95v-.86h-1.95v-1.043h2.2v-.897h-3.332v4.777h3.456v-.897zm6.325-3.88h-3.773v.897h1.316v3.88h1.14v-3.88h1.317v-.897zm7.581 2.396c0-1.5-.912-2.521-2.552-2.521-1.64 0-2.53 1.022-2.53 2.52 0 1.5.89 2.521 2.53 2.521 1.64 0 2.552-1.021 2.552-2.52zm-1.154 0c0 .926-.478 1.572-1.398 1.572-.912 0-1.375-.646-1.375-1.572s.478-1.58 1.375-1.58 1.398.654 1.398 1.58zm4.956-2.396c0 3.08-.206 3.902-.868 3.902-.184 0-.265-.044-.265-.044l-.059.919s.184.132.589.132c1.007 0 1.61-1.117 1.625-4.012h1.243v3.88h1.132v-4.777h-3.397zm11.553 2.396c0-1.5-.912-2.521-2.552-2.521-1.64 0-2.53 1.022-2.53 2.52 0 1.5.89 2.521 2.53 2.521 1.64 0 2.552-1.021 2.552-2.52zm-1.155 0c0 .926-.478 1.572-1.397 1.572-.912 0-1.376-.646-1.376-1.572s.478-1.58 1.376-1.58c.897 0 1.397.654 1.397 1.58zm7.302-1.5v-.896h-3.074v4.777h1.133v-3.88h1.941zm7.096-.896h-1.037l-.058.132-2.185 2.998h-.022l.037-.426v-2.704h-1.074v4.777h1.045l.059-.133 2.176-2.998h.015l-.029.47v2.66h1.073v-4.776zm7.781 0h-1.037l-.059.132-2.184 2.998h-.023l.037-.426v-2.704h-1.073v4.777h1.044l.059-.133 2.177-2.998h.014l-.029.47v2.66h1.074v-4.776zM62 46.868h1.133V45.25l.47-.265 1.589 1.882h1.324l-2.082-2.506 1.912-2.271h-1.264l-1.53 1.837-.42.28V42.09H62v4.777zm8.052-4.777c0 3.08-.206 3.902-.868 3.902-.183 0-.264-.044-.264-.044l-.06.919s.185.132.59.132c1.007 0 1.61-1.117 1.625-4.013h1.242v3.88h1.133v-4.776h-3.398zm11.178 0h-1.037l-.059.132-2.184 2.998h-.022l.037-.426v-2.704H76.89v4.777h1.044l.06-.133 2.176-2.998h.015l-.03.47v2.66h1.074v-4.776zm7.722 0h-1.133v1.955h-2.015V42.09H84.67v4.777h1.133v-1.962h2.015v1.962h1.133V42.09zm7.78 0h-1.037l-.06.132-2.183 2.998h-.022l.036-.426v-2.704h-1.073v4.777h1.044l.059-.133 2.177-2.998h.014l-.029.47v2.66h1.074v-4.776zm3.441 4.777h1.132V45.25l.471-.265 1.589 1.882h1.323l-2.081-2.506 1.912-2.271h-1.265l-1.529 1.837-.42.28V42.09h-1.132v4.777zm8.552-4.777l-1.743 4.777h1.14l.346-.978h1.993l.368.978h1.154l-1.743-4.777h-1.515zm.75.8l.728 2.25h-1.478l.743-2.25h.007z" fill="#0D1011"/></svg>