<svg width="199" height="61" fill="none" xmlns="http://www.w3.org/2000/svg"><path d="M30 59.25c1.248 0 2.477-.08 3.683-.234l-.003-.017c2.492-.45 4.748-1.576 6.587-3.118l-3.972-5.184c-.414.313-.956.552-1.883.791-1.664.428-3.79.606-5.935.315-2.174-.294-4.38-1.069-6.178-2.544a9.876 9.876 0 01-2.488-3.057l-.078 11.162A28.709 28.709 0 0030 59.249zM44.387 5.536L24.908 30.522a14.888 14.888 0 012.804-1.03c.982-.252 1.965-.4 2.904-.443.223-.01.46-.014.708-.01.49.01 1 .05 1.527.122l25.91.225a28.693 28.693 0 00-8.41-19.268 28.89 28.89 0 00-5.964-4.581zM19.902 32.992L42.197 4.393A28.67 28.67 0 0030 1.688a28.72 28.72 0 00-9.892 1.745l-.206 29.559zM58.78 30.6l-21.562-.188a17.151 17.151 0 013.928 2.391c3.095 2.52 5.51 6.35 5.754 11.644.019.397.024.81.017 1.238a15.114 15.114 0 01-3.72 9.701c-.407.47-.847.903-1.316 1.303a28.838 28.838 0 008.47-5.87 28.691 28.691 0 008.429-20.22zM41.17 55.058c.257-.255.504-.52.74-.79a13.413 13.413 0 003.306-8.609c.007-.38.002-.76-.016-1.138-.219-4.734-2.37-8.152-5.128-10.397-2.77-2.256-6.137-3.336-8.775-3.384-.2-.003-.403 0-.608.009a12.66 12.66 0 00-2.557.39c-1.371.354-2.738.938-3.945 1.758l16.982 22.161zM23.22 33.636a9.844 9.844 0 00-.776.743c-1.491 1.595-2.442 3.738-2.317 6.442.036.782.16 1.61.386 2.485.532 2.067 1.568 3.573 2.866 4.639 1.527 1.253 3.433 1.915 5.325 2.171 1.92.26 3.813.105 5.288-.275.7-.18 1.036-.317 1.27-.492L23.22 33.636zm10.687 26.58l-.009.002a30.297 30.297 0 01-3.898.25c-8.284 0-15.784-3.357-21.213-8.786C3.357 46.252 0 38.752 0 30.469c0-8.284 3.358-15.784 8.787-21.213C14.216 3.826 21.716.469 30 .469s15.784 3.358 21.213 8.787C56.643 14.685 60 22.185 60 30.469s-3.358 15.784-8.787 21.213a29.914 29.914 0 01-17.306 8.534zM1.239 29.392h14.802l.174-24.194a28.877 28.877 0 00-6.566 4.92c-4.972 4.972-8.133 11.754-8.41 19.274zm14.793 1.219H1.22A28.695 28.695 0 009.65 50.82a28.884 28.884 0 006.203 4.717l.18-24.926zM74.4 25.173V2.13h4.044v11.273l2.661-1.773 8.302-9.5h4.506l-9.615 11.025 10.466 12.018H90.01l-8.621-9.714-2.945 1.88v7.834H74.4zm50.311-11.486c0-2.907-.762-5.217-2.288-6.93-1.526-1.714-3.625-2.571-6.297-2.571-2.649 0-4.737.857-6.262 2.57-1.526 1.714-2.288 4.024-2.288 6.93 0 2.931.757 5.241 2.27 6.931 1.514 1.69 3.607 2.535 6.28 2.535 2.696 0 4.801-.845 6.315-2.535 1.514-1.69 2.27-4 2.27-6.93zm-.053-8.774c2.07 2.162 3.104 5.087 3.104 8.774 0 3.687-1.028 6.605-3.086 8.756-2.058 2.15-4.908 3.226-8.55 3.226-3.619 0-6.457-1.075-8.515-3.226-2.058-2.15-3.087-5.07-3.087-8.756 0-3.687 1.029-6.612 3.087-8.774 2.058-2.163 4.896-3.244 8.515-3.244 3.618 0 6.463 1.081 8.532 3.244zm29.146-2.783v10.35h3.938l8.94-10.351h1.845l-9.472 10.848 10.607 12.195h-1.809l-9.969-11.415h-4.08v11.415h-1.49V13.758h-4.009l-8.657 11.415h-1.845l9.296-11.876-8.905-11.167h1.844l8.231 10.387h4.045V2.13h1.49zm34.2 0h.639l9.508 23.043h-.497l-3.051-7.161h-12.63l-2.98 7.16h-.497l9.508-23.042zm.319.46l-6.173 15.032h12.311L188.323 2.59zM74.4 45.951h1.359v-1.94l.565-.317 1.906 2.257h1.589l-2.498-3.007 2.295-2.725h-1.518l-1.836 2.205-.503.335v-2.54h-1.36v5.732zm14.27-2.857c0-1.799-1.095-3.025-3.063-3.025-1.968 0-3.036 1.226-3.036 3.025 0 1.8 1.068 3.025 3.036 3.025s3.063-1.226 3.063-3.025zm-1.386 0c0 1.111-.574 1.887-1.677 1.887-1.094 0-1.65-.776-1.65-1.887s.573-1.896 1.65-1.896 1.677.785 1.677 1.896zm9.866-2.125s-.556-.9-2.171-.9c-1.995 0-3.063 1.252-3.063 3.043 0 1.79.998 3.007 3.045 3.007 1.862 0 2.489-1.261 2.489-1.261l-.538-.697s-.724.82-1.89.82c-1.085 0-1.72-.74-1.72-1.87 0-1.146.538-1.913 1.765-1.913.45 0 1.57.635 1.57.635l.513-.864zm11.039-.75h-1.774l-1.879 4.454h-.045l-1.879-4.454h-1.765v5.732h1.306v-3.924h.026l1.677 3.924h1.315l1.677-3.924h.035v3.924h1.306V40.22zm8.278 4.656h-2.789V43.58h2.338v-1.032h-2.338v-1.252h2.638V40.22h-3.997v5.732h4.148v-1.076zm7.588-4.656h-4.527v1.076h1.58v4.656h1.368v-4.656h1.579V40.22zm9.098 2.875c0-1.799-1.094-3.025-3.062-3.025-1.968 0-3.036 1.226-3.036 3.025 0 1.8 1.068 3.025 3.036 3.025s3.062-1.226 3.062-3.025zm-1.385 0c0 1.111-.574 1.887-1.677 1.887-1.094 0-1.65-.776-1.65-1.887s.573-1.896 1.65-1.896 1.677.785 1.677 1.896zm5.947-2.875c0 3.695-.247 4.683-1.041 4.683-.221 0-.318-.053-.318-.053l-.071 1.102s.221.16.706.16c1.209 0 1.933-1.341 1.951-4.816h1.491v4.656h1.359V40.22h-4.077zm13.864 2.875c0-1.799-1.095-3.025-3.063-3.025-1.968 0-3.036 1.226-3.036 3.025 0 1.8 1.068 3.025 3.036 3.025s3.063-1.226 3.063-3.025zm-1.386 0c0 1.111-.574 1.887-1.677 1.887-1.094 0-1.65-.776-1.65-1.887s.574-1.896 1.65-1.896c1.077 0 1.677.785 1.677 1.896zm8.763-1.799V40.22h-3.689v5.732h1.359v-4.656h2.33zm8.515-1.076h-1.244l-.071.159-2.621 3.598h-.026l.044-.511v-3.246h-1.289v5.732h1.254l.07-.158 2.612-3.598h.018l-.035.564v3.192h1.288V40.22zm9.336 0h-1.244l-.071.159-2.621 3.598h-.026l.044-.511v-3.246h-1.288v5.732h1.253l.07-.158 2.613-3.598h.017l-.035.564v3.192h1.288V40.22zM74.4 59.111h1.359v-1.94l.565-.318 1.906 2.258h1.589l-2.498-3.007 2.295-2.725h-1.518l-1.836 2.205-.503.335v-2.54h-1.36v5.732zm9.663-5.732c0 3.695-.247 4.683-1.042 4.683-.22 0-.317-.053-.317-.053l-.071 1.102s.22.159.706.159c1.209 0 1.933-1.34 1.95-4.815h1.492v4.656h1.359v-5.732h-4.077zm13.413 0h-1.244l-.07.159-2.622 3.598h-.026l.044-.512V53.38h-1.289v5.732h1.253l.071-.159 2.612-3.598h.018l-.035.565v3.192h1.288V53.38zm9.266 0h-1.359v2.346h-2.418v-2.346h-1.359v5.732h1.359v-2.354h2.418v2.354h1.359v-5.732zm9.336 0h-1.244l-.071.159-2.621 3.598h-.027l.045-.512V53.38h-1.289v5.732h1.253l.071-.159 2.612-3.598h.018l-.035.565v3.192h1.288V53.38zm4.129 5.732h1.359v-1.94l.565-.318 1.906 2.258h1.589l-2.498-3.007 2.295-2.725h-1.518l-1.836 2.205-.503.335v-2.54h-1.359v5.732zm10.263-5.732l-2.091 5.732h1.368l.414-1.173h2.392l.441 1.173h1.386l-2.092-5.732h-1.818zm.9.961l.874 2.699h-1.774l.892-2.699h.008z" fill="#fff"/></svg>