<svg width="454" height="371" fill="none" xmlns="http://www.w3.org/2000/svg"><path d="M226.999 414.587c9.442 0 18.743-.602 27.868-1.767l-.023-.129c18.86-3.398 35.928-11.922 49.842-23.593l-30.056-39.224c-3.13 2.369-7.234 4.18-14.248 5.986-12.592 3.243-28.68 4.585-44.907 2.384-16.445-2.229-33.139-8.085-46.745-19.254-7.408-6.081-13.865-13.702-18.83-23.125l-.586 84.456c24.128 9.217 50.317 14.266 77.685 14.266zM335.859 8.161L188.472 197.22a112.65 112.65 0 0121.213-7.791c7.434-1.914 14.87-3.031 21.974-3.359a83.67 83.67 0 015.359-.067c3.704.067 7.574.371 11.558.915l196.045 1.704c-2.105-56.88-26.021-108.187-63.631-145.797a218.602 218.602 0 00-45.131-34.664zM150.595 215.904L319.293-.491c-28.023-13.13-59.301-20.468-92.294-20.468-26.299 0-51.511 4.662-74.851 13.205l-1.553 223.658zm294.173-18.092l-163.152-1.417c10.261 4.504 20.407 10.508 29.721 18.09 23.419 19.067 41.693 48.042 43.543 88.104.138 3.003.181 6.126.123 9.369-.507 28.126-10.944 53.635-28.141 73.407a94.726 94.726 0 01-9.959 9.856c24.006-10.894 45.685-26.016 64.087-44.418 39.189-39.189 63.509-93.25 63.778-152.991zM311.513 382.874c1.95-1.932 3.823-3.93 5.611-5.986 15.286-17.574 24.565-40.211 25.013-65.131.052-2.877.009-5.75-.124-8.613-1.654-35.821-17.936-61.682-38.8-78.669-20.967-17.07-46.439-25.248-66.397-25.607a72.408 72.408 0 00-4.602.067c-6.264.289-12.812 1.272-19.351 2.955-10.371 2.671-20.713 7.094-29.848 13.297l128.498 167.687zM175.701 220.776a74.562 74.562 0 00-5.872 5.623c-11.284 12.074-18.482 28.283-17.536 48.747.273 5.915 1.216 12.184 2.921 18.806 4.026 15.637 11.863 27.033 21.691 35.099 11.55 9.481 25.97 14.488 40.285 16.429 14.534 1.97 28.857.791 40.013-2.081 5.3-1.365 7.84-2.403 9.607-3.728l-91.109-118.895zm80.86 201.128l-.064.011-.001-.003a229.11 229.11 0 01-29.497 1.902c-62.682 0-119.433-25.409-160.512-66.487C25.407 316.247 0 259.498 0 196.814 0 134.131 25.408 77.381 66.487 36.302 107.566-4.778 164.316-30.186 227-30.186c62.684 0 119.435 25.409 160.514 66.488C428.592 77.382 454 134.13 454 196.814s-25.408 119.434-66.487 160.513c-34.513 34.513-80.09 57.962-130.952 64.577zM9.378 188.664h111.996l1.321-183.063A218.5 218.5 0 0073.01 42.825C35.39 80.445 11.472 131.77 9.378 188.664zm111.929 9.225H9.234C9.523 257.6 33.837 311.63 73.01 350.803a218.548 218.548 0 0046.937 35.695l1.36-188.609z" fill="url(#paint0_linear_248_7023)"/><defs><linearGradient id="paint0_linear_248_7023" x1="76.421" y1="9.44" x2="404.185" y2="349.091" gradientUnits="userSpaceOnUse"><stop offset=".226" stop-color="#8A7A4D"/><stop offset=".5" stop-color="#F6EBBA"/><stop offset=".606" stop-color="#BBAE87"/></linearGradient></defs></svg>