<svg width="24" height="24" fill="none" xmlns="http://www.w3.org/2000/svg"><mask id="a" style="mask-type:luminance" maskUnits="userSpaceOnUse" x="0" y="0" width="24" height="24"><path d="M23.538.462H.461v23.076h23.077V.462z" fill="#fff"/></mask><g mask="url(#a)"><path d="M12 1.385C6.138 1.385 1.385 6.139 1.385 12c0 2.216.669 4.316 1.938 6.116L1.431 22.27c-.046.092-.023.184.046.253a.26.26 0 00.254.07l4.546-1.662A10.498 10.498 0 0012 22.616h.023c5.862 0 10.616-4.754 10.616-10.616 0-5.86-4.778-10.615-10.639-10.615zm5.908 14.7c-.07.184-.231.392-.323.554a4.283 4.283 0 01-.693.738c-.046.046-.092.07-.138.116-.046.023-.07.046-.116.069-.184.138-.369.23-.53.277a1.085 1.085 0 01-.393.069H15.6c-.23 0-.37-.046-.692-.162a15.18 15.18 0 00-.831-.346l-.07-.046c-.253-.115-.507-.254-.76-.37l-.093-.068a19.778 19.778 0 01-.716-.416l-.046-.046a15.194 15.194 0 01-4.084-3.692c-.116-.139-.208-.277-.323-.416l-.139-.207-.138-.208c-.093-.138-.162-.254-.254-.392l-.023-.023c-.07-.139-.162-.254-.231-.393 0 0-.023-.023-.023-.046a12.525 12.525 0 01-.923-1.961C6 8.423 5.93 7.985 6.208 7.5c.115-.207.554-.623.854-.83.53-.393.761-.531.992-.577.161-.024.415-.024.6.046.092.023.208.092.277.138.438.277 1.454 1.592 1.777 2.216.23.415.277.738.207.992-.069.277-.23.438-.692.785-.092.092-.208.161-.277.23l-.046.046-.023.024c-.046.046-.07.184-.07.276 0 .231.162.762.44 1.177.207.323.553.739.922 1.062.416.37.785.623 1.2.83.485.231.785.3.946.231.024-.023.07-.023.093-.046.046-.046.138-.161.3-.346.23-.3.346-.415.53-.508.047-.023.116-.046.162-.069.323-.115.67-.092.992.093.231.115.693.392.993.6.369.253 1.246.946 1.384 1.107.139.162.231.37.231.6.023.139-.023.323-.092.508z" fill="#725E51"/></g></svg>